GRF
version=1
nRows=24
nColumns=19
inDegrees=no
endheader
time	1_ground_force_vx	1_ground_force_vy	1_ground_force_vz	1_ground_force_px	1_ground_force_py	1_ground_force_pz	1_ground_torque_x	1_ground_torque_y	1_ground_torque_z	2_ground_force_vx	2_ground_force_vy	2_ground_force_vz	2_ground_force_px	2_ground_force_py	2_ground_force_pz	2_ground_torque_x	2_ground_torque_y	2_ground_torque_z
      1.60500000	     -0.22186612	      1.05826308	      0.19058473	      0.29634851	      0.00000000	      0.15888727	      0.00000000	     -0.05893366	      0.00000000	     21.25407140	    554.46294649	    -30.51296890	     -0.39551426	      0.00000000	      0.30721068	      0.00000000	      1.48265248	     -0.00000000
      1.60600000	     -0.65836623	      0.35604719	      0.24231418	      0.35690714	      0.00000000	      0.13295211	      0.00000000	     -0.16413013	      0.00000000	     21.03812887	    554.43108395	    -30.64117336	     -0.39599610	      0.00000000	      0.30728740	      0.00000000	      1.45782004	     -0.00000000
      1.60700000	     -1.01372375	      0.43798413	      0.01495259	      0.45577228	      0.00000000	      0.01013541	      0.00000000	     -0.36891971	      0.00000000	     20.86320514	    554.13683349	    -30.75821252	     -0.39652758	      0.00000000	      0.30729789	      0.00000000	      1.44318464	     -0.00000000
      1.60800000	     -0.88182625	      1.13585030	     -0.02505319	      0.36317311	      0.00000000	      0.09815892	      0.00000000	     -0.19882802	      0.00000000	     20.66022528	    553.86871013	    -30.83557322	     -0.39704242	      0.00000000	      0.30728674	      0.00000000	      1.42385407	     -0.00000000
      1.60900000	     -0.64083919	      1.42172801	     -0.21703672	      0.30194618	      0.00000000	      0.24402936	      0.00000000	     -0.00684859	      0.00000000	     20.45935432	    553.68037564	    -30.96699175	     -0.39751944	      0.00000000	      0.30725447	      0.00000000	      1.39553779	     -0.00000000
      1.61000000	     -0.86765031	      1.13905224	     -0.68319296	      0.29748133	      0.00000000	      0.27886168	      0.00000000	      0.02726451	      0.00000000	     20.28542668	    553.51190125	    -31.04207818	     -0.39801862	      0.00000000	      0.30727320	      0.00000000	      1.38099212	     -0.00000000
      1.61100000	     -1.02818048	      0.76923313	     -0.82659493	      0.33894997	      0.00000000	      0.32329202	      0.00000000	      0.04826891	     -0.00000000	     20.10227303	    553.37302081	    -31.05001575	     -0.39854979	      0.00000000	      0.30731805	      0.00000000	      1.36624243	     -0.00000000
      1.61200000	     -0.56046845	      1.56252523	     -0.59430583	      0.38308829	      0.00000000	      0.31995531	      0.00000000	     -0.00691574	     -0.00000000	     19.91283400	    553.05158160	    -31.10608977	     -0.39906217	      0.00000000	      0.30731639	      0.00000000	      1.33143826	     -0.00000000
      1.61300000	     -0.30882952	      3.11289587	     -0.08558630	      0.29847214	      0.00000000	      0.26002541	      0.00000000	      0.02933036	     -0.00000000	     19.70068277	    552.75760671	    -31.14046240	     -0.39959688	      0.00000000	      0.30729855	      0.00000000	      1.30283526	     -0.00000000
      1.61400000	     -0.63538903	      3.16031083	      0.02271797	      0.38262274	      0.00000000	      0.21896520	     -0.00000000	      0.05309548	     -0.00000000	     19.47660628	    552.72205169	    -31.11435230	     -0.40013138	      0.00000000	      0.30731294	     -0.00000000	      1.29291351	     -0.00000000
      1.61500000	     -0.99179461	      1.58479784	     -0.13264360	      0.94378036	      0.00000000	      0.07993670	     -0.00000000	     -0.12668145	     -0.00000000	     19.26658544	    552.91220994	    -31.06581753	     -0.40069302	      0.00000000	      0.30735201	     -0.00000000	      1.28684447	     -0.00000000
      1.61600000	     -0.97656106	      0.36033573	      0.08206228	      1.22742264	      0.00000000	     -0.00240123	     -0.00000000	     -0.27093970	     -0.00000000	     19.07112768	    552.99990500	    -31.09341389	     -0.40126339	      0.00000000	      0.30739030	     -0.00000000	      1.27074302	     -0.00000000
      1.61700000	     -0.73935504	      0.33086282	      0.28218643	      0.56757206	      0.00000000	      0.22139082	     -0.00000000	     -0.07375720	     -0.00000000	     18.84370753	    552.98128801	    -31.09959983	     -0.40175077	      0.00000000	      0.30738325	     -0.00000000	      1.24559234	     -0.00000000
      1.61800000	     -0.73168034	      1.04989159	      0.00635643	      0.15114802	      0.00000000	      0.32261366	     -0.00000000	      0.08592711	     -0.00000000	     18.58568181	    553.14167277	    -31.00390944	     -0.40217617	      0.00000000	      0.30731332	     -0.00000000	      1.20660528	     -0.00000000
      1.61900000	     -0.95826925	      1.38775855	     -0.39481825	      0.13606249	      0.00000000	      0.25666391	     -0.00000000	      0.07227335	      0.00000000	     18.28375731	    553.45789142	    -30.86734181	     -0.40257000	      0.00000000	      0.30725440	     -0.00000000	      1.15473102	     -0.00000000
      1.62000000	     -0.87742428	      1.51594177	     -0.44803047	      0.22650930	      0.00000000	      0.18080770	     -0.00000000	     -0.02280601	      0.00000000	     17.94470278	    553.72868059	    -30.76864801	     -0.40297546	      0.00000000	      0.30723732	      0.00000000	      1.11433354	      0.00000000
      1.62100000	     -0.47972800	      2.10789784	     -0.12356507	      0.25627240	      0.00000000	      0.17643495	      0.00000000	     -0.04342678	     -0.00000000	     17.70911775	    553.67703545	    -30.70168753	     -0.40344695	      0.00000000	      0.30721813	      0.00000000	      1.09819560	      0.00000000
      1.62200000	     -0.46441793	      2.05237202	      0.10256398	      0.29576675	      0.00000000	      0.14341880	      0.00000000	     -0.12351195	     -0.00000000	     17.57107146	    553.45458510	    -30.56668412	     -0.40396782	      0.00000000	      0.30718387	      0.00000000	      1.08597772	      0.00000000
      1.62300000	     -0.81222659	      1.02158065	     -0.12885066	      0.48978930	      0.00000000	     -0.05275321	      0.00000000	     -0.43328541	      0.00000000	     17.35030826	    553.66682196	    -30.46635532	     -0.40448263	      0.00000000	      0.30716293	      0.00000000	      1.07152259	      0.00000000
      1.62400000	     -0.83770033	      0.43588424	     -0.28196523	      0.48654651	      0.00000000	     -0.07324850	     -0.00000000	     -0.40047213	      0.00000000	     16.97754422	    554.08981193	    -30.43186196	     -0.40499185	      0.00000000	      0.30710898	      0.00000000	      1.05037473	      0.00000000
      1.62500000	     -0.56671246	      1.03517485	      0.05856120	      0.27342387	      0.00000000	      0.12350836	     -0.00000000	     -0.09210659	      0.00000000	     16.60499944	    554.36815032	    -30.34204680	     -0.40549308	      0.00000000	      0.30701929	      0.00000000	      1.01811020	      0.00000000
      1.62600000	     -0.52871507	      1.66071327	      0.20547821	      0.18717230	      0.00000000	      0.17227095	      0.00000000	     -0.04712684	      0.00000000	     16.35124823	    554.76508427	    -30.15512597	     -0.40595735	      0.00000000	      0.30703034	      0.00000000	      0.98041106	      0.00000000
      1.62700000	     -0.74626149	      1.44601523	      0.08938533	      0.21048392	      0.00000000	      0.03273369	      0.00000000	     -0.15841189	      0.00000000	     16.14037161	    555.55594487	    -29.95096658	     -0.40638681	      0.00000000	      0.30703932	      0.00000000	      0.94429510	      0.00000000
      1.62800000	     -0.63595817	      0.98856470	      0.22286898	      0.25918286	      0.00000000	     -0.08300470	      0.00000000	     -0.21251059	      0.00000000	     15.94607697	    556.32012308	    -29.74805313	     -0.40678506	      0.00000000	      0.30694714	     -0.00000000	      0.91734078	      0.00000000
